<svg width="164" height="40" viewBox="0 0 164 40" fill="none" xmlns="http://www.w3.org/2000/svg">
<path d="M55.8116 19.22H53.8716V28H51.0316V19.22H49.7716V16.92H51.0316V16.36C51.0316 15 51.4182 14 52.1916 13.36C52.9649 12.72 54.1316 12.42 55.6916 12.46V14.82C55.0116 14.8067 54.5382 14.92 54.2716 15.16C54.0049 15.4 53.8716 15.8333 53.8716 16.46V16.92H55.8116V19.22ZM59.0461 15.6C58.5528 15.6 58.1394 15.4467 57.8061 15.14C57.4861 14.82 57.3261 14.4267 57.3261 13.96C57.3261 13.4933 57.4861 13.1067 57.8061 12.8C58.1394 12.48 58.5528 12.32 59.0461 12.32C59.5394 12.32 59.9461 12.48 60.2661 12.8C60.5994 13.1067 60.7661 13.4933 60.7661 13.96C60.7661 14.4267 60.5994 14.82 60.2661 15.14C59.9461 15.4467 59.5394 15.6 59.0461 15.6ZM60.4261 16.92V28H57.6261V16.92H60.4261ZM69.3325 16.76C70.6525 16.76 71.7192 17.18 72.5325 18.02C73.3458 18.8467 73.7525 20.0067 73.7525 21.5V28H70.9525V21.88C70.9525 21 70.7325 20.3267 70.2925 19.86C69.8525 19.38 69.2525 19.14 68.4925 19.14C67.7192 19.14 67.1058 19.38 66.6525 19.86C66.2125 20.3267 65.9925 21 65.9925 21.88V28H63.1925V16.92H65.9925V18.3C66.3658 17.82 66.8392 17.4467 67.4125 17.18C67.9992 16.9 68.6392 16.76 69.3325 16.76ZM75.6952 22.46C75.6952 21.3133 75.9285 20.3133 76.3952 19.46C76.8618 18.5933 77.5085 17.9267 78.3352 17.46C79.1618 16.98 80.1085 16.74 81.1752 16.74C82.5485 16.74 83.6818 17.0867 84.5752 17.78C85.4818 18.46 86.0885 19.42 86.3952 20.66H83.3752C83.2152 20.18 82.9418 19.8067 82.5552 19.54C82.1818 19.26 81.7152 19.12 81.1552 19.12C80.3552 19.12 79.7218 19.4133 79.2552 20C78.7885 20.5733 78.5552 21.3933 78.5552 22.46C78.5552 23.5133 78.7885 24.3333 79.2552 24.92C79.7218 25.4933 80.3552 25.78 81.1552 25.78C82.2885 25.78 83.0285 25.2733 83.3752 24.26H86.3952C86.0885 25.46 85.4818 26.4133 84.5752 27.12C83.6685 27.8267 82.5352 28.18 81.1752 28.18C80.1085 28.18 79.1618 27.9467 78.3352 27.48C77.5085 27 76.8618 26.3333 76.3952 25.48C75.9285 24.6133 75.6952 23.6067 75.6952 22.46ZM92.492 22.46C92.492 21.3133 92.7254 20.3133 93.192 19.46C93.6587 18.5933 94.3054 17.9267 95.132 17.46C95.9587 16.98 96.9054 16.74 97.972 16.74C99.3454 16.74 100.479 17.0867 101.372 17.78C102.279 18.46 102.885 19.42 103.192 20.66H100.172C100.012 20.18 99.7387 19.8067 99.352 19.54C98.9787 19.26 98.512 19.12 97.952 19.12C97.152 19.12 96.5187 19.4133 96.052 20C95.5854 20.5733 95.352 21.3933 95.352 22.46C95.352 23.5133 95.5854 24.3333 96.052 24.92C96.5187 25.4933 97.152 25.78 97.952 25.78C99.0854 25.78 99.8254 25.2733 100.172 24.26H103.192C102.885 25.46 102.279 26.4133 101.372 27.12C100.465 27.8267 99.332 28.18 97.972 28.18C96.9054 28.18 95.9587 27.9467 95.132 27.48C94.3054 27 93.6587 26.3333 93.192 25.48C92.7254 24.6133 92.492 23.6067 92.492 22.46ZM110.163 28.18C109.097 28.18 108.137 27.9467 107.283 27.48C106.43 27 105.757 26.3267 105.263 25.46C104.783 24.5933 104.543 23.5933 104.543 22.46C104.543 21.3267 104.79 20.3267 105.283 19.46C105.79 18.5933 106.477 17.9267 107.343 17.46C108.21 16.98 109.177 16.74 110.243 16.74C111.31 16.74 112.277 16.98 113.143 17.46C114.01 17.9267 114.69 18.5933 115.183 19.46C115.69 20.3267 115.943 21.3267 115.943 22.46C115.943 23.5933 115.683 24.5933 115.163 25.46C114.657 26.3267 113.963 27 113.083 27.48C112.217 27.9467 111.243 28.18 110.163 28.18ZM110.163 25.74C110.67 25.74 111.143 25.62 111.583 25.38C112.037 25.1267 112.397 24.7533 112.663 24.26C112.93 23.7667 113.063 23.1667 113.063 22.46C113.063 21.4067 112.783 20.6 112.223 20.04C111.677 19.4667 111.003 19.18 110.203 19.18C109.403 19.18 108.73 19.4667 108.183 20.04C107.65 20.6 107.383 21.4067 107.383 22.46C107.383 23.5133 107.643 24.3267 108.163 24.9C108.697 25.46 109.363 25.74 110.163 25.74ZM124.137 16.76C125.457 16.76 126.524 17.18 127.337 18.02C128.151 18.8467 128.557 20.0067 128.557 21.5V28H125.757V21.88C125.757 21 125.537 20.3267 125.097 19.86C124.657 19.38 124.057 19.14 123.297 19.14C122.524 19.14 121.911 19.38 121.457 19.86C121.017 20.3267 120.797 21 120.797 21.88V28H117.997V16.92H120.797V18.3C121.171 17.82 121.644 17.4467 122.217 17.18C122.804 16.9 123.444 16.76 124.137 16.76ZM134.48 19.22V24.58C134.48 24.9533 134.567 25.2267 134.74 25.4C134.927 25.56 135.233 25.64 135.66 25.64H136.96V28H135.2C132.84 28 131.66 26.8533 131.66 24.56V19.22H130.34V16.92H131.66V14.18H134.48V16.92H136.96V19.22H134.48ZM141.774 18.64C142.134 18.0533 142.6 17.5933 143.174 17.26C143.76 16.9267 144.427 16.76 145.174 16.76V19.7H144.434C143.554 19.7 142.887 19.9067 142.434 20.32C141.994 20.7333 141.774 21.4533 141.774 22.48V28H138.974V16.92H141.774V18.64ZM151.98 28.18C150.913 28.18 149.953 27.9467 149.1 27.48C148.246 27 147.573 26.3267 147.08 25.46C146.6 24.5933 146.36 23.5933 146.36 22.46C146.36 21.3267 146.606 20.3267 147.1 19.46C147.606 18.5933 148.293 17.9267 149.16 17.46C150.026 16.98 150.993 16.74 152.06 16.74C153.126 16.74 154.093 16.98 154.96 17.46C155.826 17.9267 156.506 18.5933 157 19.46C157.506 20.3267 157.76 21.3267 157.76 22.46C157.76 23.5933 157.5 24.5933 156.98 25.46C156.473 26.3267 155.78 27 154.9 27.48C154.033 27.9467 153.06 28.18 151.98 28.18ZM151.98 25.74C152.486 25.74 152.96 25.62 153.4 25.38C153.853 25.1267 154.213 24.7533 154.48 24.26C154.746 23.7667 154.88 23.1667 154.88 22.46C154.88 21.4067 154.6 20.6 154.04 20.04C153.493 19.4667 152.82 19.18 152.02 19.18C151.22 19.18 150.546 19.4667 150 20.04C149.466 20.6 149.2 21.4067 149.2 22.46C149.2 23.5133 149.46 24.3267 149.98 24.9C150.513 25.46 151.18 25.74 151.98 25.74ZM162.614 13.2V28H159.814V13.2H162.614Z" fill="white"/>
<path d="M34.1422 5.85781C30.3647 2.08031 25.3422 0 20 0C14.6578 0 9.63531 2.08031 5.85781 5.85781C2.08031 9.63531 0 14.6578 0 20C0 25.3422 2.08039 30.3646 5.85781 34.1422C9.63523 37.9198 14.6578 40 20 40C25.3422 40 30.3647 37.9197 34.1422 34.1422C37.9197 30.3647 40 25.3422 40 20C40 14.6578 37.9196 9.63539 34.1422 5.85781Z" fill="#33CC95"/>
<g clip-path="url(#clip0_35212_417)">
<path d="M20.5714 8V33.1429" stroke="white" stroke-width="2" stroke-linecap="round" stroke-linejoin="round"/>
<path d="M26.2857 12.5714H17.7143C16.6534 12.5714 15.636 12.9929 14.8859 13.743C14.1357 14.4931 13.7143 15.5106 13.7143 16.5714C13.7143 17.6323 14.1357 18.6497 14.8859 19.3999C15.636 20.15 16.6534 20.5714 17.7143 20.5714H23.4286C24.4894 20.5714 25.5069 20.9929 26.257 21.743C27.0072 22.4932 27.4286 23.5106 27.4286 24.5714C27.4286 25.6323 27.0072 26.6497 26.257 27.3999C25.5069 28.15 24.4894 28.5714 23.4286 28.5714H13.7143" stroke="white" stroke-width="2" stroke-linecap="round" stroke-linejoin="round"/>
</g>
<defs>
<clipPath id="clip0_35212_417">
<rect width="27.4286" height="27.4286" fill="white" transform="translate(6.85715 6.85714)"/>
</clipPath>
</defs>
</svg>
